<svg width="24" height="24" viewBox="0 0 24 24" fill="none" xmlns="http://www.w3.org/2000/svg">
<g filter="url(#filter0_d)">
<circle cx="12" cy="12" r="10" fill="white"/>
<path fill-rule="evenodd" clip-rule="evenodd" d="M15.2102 8.7736C14.9148 8.47749 14.4715 8.47749 14.1761 8.7736L12.0093 10.9451L9.84244 8.7736C9.54696 8.47749 9.10375 8.47749 8.80828 8.7736C8.5128 9.06971 8.5128 9.51388 8.80828 9.81L10.9751 11.9815L8.80828 14.153C8.5128 14.4491 8.5128 14.8933 8.80828 15.1894C8.95601 15.3374 9.153 15.3868 9.34998 15.3868C9.54696 15.3868 9.74395 15.3374 9.89168 15.1894L12.0585 13.0179L14.2253 15.1894C14.3731 15.3374 14.57 15.3868 14.767 15.3868C14.964 15.3868 15.161 15.3374 15.3087 15.1894C15.6042 14.8933 15.6042 14.4491 15.3087 14.153L13.1419 11.9815L15.3087 9.81C15.5057 9.51388 15.5057 9.06971 15.2102 8.7736Z" fill="#8B83BA"/>
</g>
<defs>
<filter id="filter0_d" x="0" y="0" width="24" height="24" filterUnits="userSpaceOnUse" color-interpolation-filters="sRGB">
<feFlood flood-opacity="0" result="BackgroundImageFix"/>
<feColorMatrix in="SourceAlpha" type="matrix" values="0 0 0 0 0 0 0 0 0 0 0 0 0 0 0 0 0 0 127 0" result="hardAlpha"/>
<feOffset/>
<feGaussianBlur stdDeviation="1"/>
<feColorMatrix type="matrix" values="0 0 0 0 0 0 0 0 0 0 0 0 0 0 0 0 0 0 0.25 0"/>
<feBlend mode="normal" in2="BackgroundImageFix" result="effect1_dropShadow"/>
<feBlend mode="normal" in="SourceGraphic" in2="effect1_dropShadow" result="shape"/>
</filter>
</defs>
</svg>
